PathFileType	4	(X/Y/Z)	s05c0203.trc
DataRate	CameraRate	NumFrames	NumMarkers	Units	OrigDataRate	OrigDataStartFrame	OrigNumFrames
200	200	4	47	mm	200	750	2000
Frame#	Time	racr			lacr			c7			jug			rlel			rdr			llel			ldr			s2			lic			ric			lasi			rasi			rpsi			lpsi			rgt			lgt			rth1			rth2			rth3			rth4			rlfc			rsh1			rsh2			rsh3			rsh4			rlmal			rcal			rtoe			rmt5			lth1			lth2			lth4			lth3			llfc			lmfc			lsh1			lsh2			lsh3			lsh4			llmal			lcal			ltoe			lmt5			SBIKE			LBIKE			RBIKE			
		X1	Y1	Z1	X2	Y2	Z2	X3	Y3	Z3	X4	Y4	Z4	X5	Y5	Z5	X6	Y6	Z6	X7	Y7	Z7	X8	Y8	Z8	X9	Y9	Z9	X10	Y10	Z10	X11	Y11	Z11	X12	Y12	Z12	X13	Y13	Z13	X14	Y14	Z14	X15	Y15	Z15	X16	Y16	Z16	X17	Y17	Z17	X18	Y18	Z18	X19	Y19	Z19	X20	Y20	Z20	X21	Y21	Z21	X22	Y22	Z22	X23	Y23	Z23	X24	Y24	Z24	X25	Y25	Z25	X26	Y26	Z26	X27	Y27	Z27	X28	Y28	Z28	X29	Y29	Z29	X30	Y30	Z30	X31	Y31	Z31	X32	Y32	Z32	X33	Y33	Z33	X34	Y34	Z34	X35	Y35	Z35	X36	Y36	Z36	X37	Y37	Z37	X38	Y38	Z38	X39	Y39	Z39	X40	Y40	Z40	X41	Y41	Z41	X42	Y42	Z42	X43	Y43	Z43	X44	Y44	Z44	X45	Y45	Z45	X46	Y46	Z46	X47	Y47	Z47	
750	3.7500	474.161383	1236.926459	-129.836035	495.247636	1252.550033	-383.799050	463.479924	1331.119227	-255.056208	399.441345	1180.986719	-267.491808	462.099613	1025.459662	51.912033	655.560052	957.556752	-75.223493	471.422857	1098.664344	-638.354722	652.843563	970.640732	-514.274713	-117.935952	1190.187380	-300.306361	37.033762	1187.771436	-441.696995	16.612930	1216.251972	-157.801333	74.393200	1131.242227	-397.543631	63.602205	1159.556959	-185.496283	-84.805197	1242.255415	-265.658360	-74.859806	1235.958826	-350.112397	-8.305326	1113.120035	-119.903952	-41.146893	1080.442368	-457.607378	100.459405	1075.322276	-115.699064	189.465943	1070.821892	-121.216290	262.103983	1021.260824	-125.486654	198.822859	1102.248267	-138.781536	396.398076	958.743161	-156.358770	324.070839	882.881042	-127.617277	297.197566	798.220249	-130.915803	235.775538	739.111607	-127.402940	323.714920	782.005968	-153.757727	167.010915	615.545036	-122.987837	88.692259	602.494001	-165.056294	359.773914	485.480610	-162.335704	258.470333	499.067479	-95.674804	31.666202	954.061644	-471.073545	92.478438	893.792195	-467.584262	124.337777	910.496399	-457.852784	114.718646	806.085354	-464.357725	178.274376	676.422554	-428.919623	161.896136	665.719708	-321.515571	123.065212	562.540140	-457.914865	121.639478	476.180708	-446.130670	76.030236	399.565430	-445.263662	151.128598	469.968366	-422.160386	54.531506	281.933951	-438.772349	-11.124936	259.961854	-394.960009	262.152526	149.943945	-401.426552	151.338122	156.963914	-464.023915	-264.627738	892.216412	-286.855924	-53.520812	79.210091	-474.807676	-53.490556	79.376265	-77.177292	
751	3.7550	472.632902	1236.185382	-128.174320	495.879656	1250.495359	-381.150788	462.721155	1330.371604	-253.068573	398.547809	1180.073271	-265.065734	461.227810	1023.999968	52.261108	655.269184	957.449582	-74.920871	473.714707	1100.051709	-638.230948	653.190941	970.562257	-513.800358	-118.813944	1191.191561	-301.250035	36.445934	1187.671892	-442.708224	15.452941	1217.472818	-158.645068	73.371923	1130.966367	-398.286877	62.373280	1160.105009	-186.204602	-85.533581	1243.103385	-266.649132	-75.433710	1236.750738	-351.447630	-9.565801	1114.406988	-120.701922	-41.834810	1080.650934	-458.346439	98.990956	1075.102901	-116.213646	187.989749	1069.315578	-121.666447	260.185292	1019.180209	-125.364916	197.779823	1100.598613	-139.354935	393.711070	954.646745	-156.815114	321.788267	877.634997	-128.066142	296.218978	792.481000	-130.915051	235.606157	732.506133	-127.458751	323.031046	776.712171	-153.775748	169.611181	607.387200	-122.902195	91.469044	590.879431	-164.583872	368.121661	487.670877	-162.042120	266.285832	495.710241	-95.146282	33.602726	954.746004	-471.282177	95.804784	896.042052	-466.393209	127.111361	913.486875	-456.328112	120.054827	808.814425	-462.354285	185.418603	680.106243	-427.950487	168.516312	669.707416	-319.811493	127.108738	567.486282	-457.126857	123.197113	481.153171	-445.359001	75.449316	405.903395	-444.646013	152.428523	474.126630	-421.357681	50.201806	288.977950	-438.254534	-15.957231	269.199107	-393.977857	253.272208	149.528661	-401.788963	142.518374	160.716204	-463.686652	-264.640389	892.246744	-286.715175	-53.525673	79.247971	-474.782483	-53.492478	79.390414	-77.168739	
752	3.7600	470.979708	1235.182104	-126.934793	496.468950	1248.612252	-378.578221	461.874323	1329.767152	-251.213212	397.351843	1179.686445	-263.886923	460.213193	1022.736177	52.507953	654.963860	957.463050	-74.630706	476.006065	1101.314498	-638.021949	653.463507	970.431412	-513.321072	-119.638301	1191.823246	-302.178356	35.623531	1187.330901	-443.306029	14.535314	1218.329774	-159.750399	72.319069	1130.632733	-398.952470	61.213820	1160.553433	-186.733164	-86.088991	1243.793778	-267.698925	-76.099926	1237.293780	-352.518574	-10.846077	1115.413846	-121.465054	-42.452146	1080.752205	-459.014684	97.823615	1074.367210	-116.473117	186.671560	1067.301095	-121.995025	258.067043	1016.397919	-125.249346	196.908205	1098.259635	-139.937807	390.802580	949.281480	-157.275586	319.098989	871.177837	-128.273073	295.024183	785.646661	-130.783269	235.401985	724.605898	-127.224489	322.099196	770.101178	-153.516609	171.935969	598.292428	-122.604037	94.680080	578.120040	-164.190598	375.994390	489.252729	-161.845502	273.781410	491.785424	-94.666728	35.803257	955.618914	-471.514877	99.466910	898.574445	-465.292495	130.145671	916.814315	-454.683505	125.935638	811.979553	-460.419399	193.070370	684.168577	-426.982854	175.452598	673.736386	-319.199258	131.767905	572.760428	-456.439369	125.381755	486.469015	-444.645449	75.494906	412.669997	-444.175451	154.336160	478.623756	-420.497517	46.477038	296.530740	-437.935426	-20.181234	279.046381	-393.080869	244.520084	149.550492	-402.142836	134.014993	165.014016	-463.332612	-264.627781	892.337346	-286.672765	-53.508763	79.323184	-474.776639	-53.481200	79.373554	-77.154211	
753	3.7650	469.354997	1234.909681	-125.452085	496.816611	1246.826218	-376.003412	460.922629	1329.256345	-249.507498	396.119998	1179.133646	-261.889289	458.898583	1021.698449	52.638110	654.701905	957.527916	-74.360109	478.206583	1102.592438	-637.781545	653.770435	970.280329	-512.824499	-120.434076	1192.235408	-303.029613	34.913021	1186.913158	-444.122888	13.609365	1218.857306	-160.670917	71.358415	1130.084569	-399.521737	60.346104	1160.742293	-187.043781	-86.469102	1244.328279	-268.658793	-76.716847	1237.579805	-353.544001	-12.087176	1115.816931	-122.339987	-43.018884	1080.678745	-459.727116	96.751155	1072.930806	-116.714925	185.539586	1064.497840	-122.420451	255.989143	1012.149546	-125.205752	196.308143	1095.212263	-140.421628	388.102637	943.207926	-157.563025	316.072415	863.564793	-128.198108	293.673949	777.559894	-130.544649	235.224938	715.464153	-126.712929	320.881057	762.435110	-152.992450	174.325916	588.153387	-122.543821	97.924094	564.275401	-163.795831	383.462665	490.147752	-161.289144	281.218856	486.911472	-94.127301	38.276937	956.561258	-471.669043	103.628713	901.576323	-464.840713	133.427907	920.364668	-452.997715	132.125355	815.516681	-458.651474	201.066151	688.542538	-426.212961	182.851102	677.976355	-318.803466	136.922327	578.243086	-455.735402	128.049626	492.013723	-443.915747	76.114417	419.800891	-443.795140	156.684441	483.500583	-419.730441	43.321434	304.455235	-437.606216	-23.910207	289.489911	-392.223842	235.882070	150.040118	-402.306215	125.832091	169.938507	-462.911796	-264.616426	892.320978	-286.286187	-53.500456	79.392187	-474.724810	-53.474112	79.365672	-77.122151	
